<svg width="1440" height="800" viewBox="0 0 1440 800" fill="none" xmlns="http://www.w3.org/2000/svg">
<g clip-path="url(#clip0_166_4241)">
<g clip-path="url(#clip1_166_4241)">
<path d="M1130.15 384.542C1132.96 380.441 1132.48 374.014 1128.38 371.206C1124.28 368.397 1118.11 370.27 1115.3 374.372" stroke="#B5B5B5" stroke-width="2" stroke-linecap="round" stroke-linejoin="round"/>
<path d="M1127.86 368.426L1123.73 365.601" stroke="#B5B5B5" stroke-width="2" stroke-linecap="round" stroke-linejoin="round"/>
<path d="M1135.28 373.511L1131.16 370.686" stroke="#B5B5B5" stroke-width="2" stroke-linecap="round" stroke-linejoin="round"/>
<path d="M1128.38 371.206C1129.29 371.83 1130.53 371.597 1131.16 370.686C1131.78 369.774 1131.55 368.53 1130.64 367.906C1129.73 367.281 1128.48 367.514 1127.86 368.426C1127.23 369.337 1127.46 370.582 1128.38 371.206Z" stroke="#B5B5B5" stroke-width="2" stroke-linecap="round" stroke-linejoin="round"/>
<path d="M1132.29 369.036L1128.99 366.776L1126.73 370.076L1130.03 372.336L1132.29 369.036Z" stroke="#B5B5B5" stroke-width="2" stroke-linecap="round" stroke-linejoin="round"/>
<path d="M1138.6 373.968L1136.13 372.273L1134.43 374.748L1136.91 376.443L1138.6 373.968Z" stroke="#B5B5B5" stroke-width="2" stroke-linecap="round" stroke-linejoin="round"/>
<path d="M1124.58 364.363L1122.1 362.668L1120.41 365.143L1122.88 366.838L1124.58 364.363Z" stroke="#B5B5B5" stroke-width="2" stroke-linecap="round" stroke-linejoin="round"/>
</g>
<path d="M1283.1 219.465C1282.17 219.962 1281.21 220.39 1280.22 220.742C1279.09 221.148 1277.85 220.667 1277.27 219.615L1274.47 214.42C1273.7 212.976 1274.24 211.175 1275.68 210.397L1279.59 208.292C1280.3 207.908 1280.57 207.014 1280.19 206.3L1277.39 201.115C1277.18 200.71 1276.71 200.532 1276.27 200.688C1274.43 201.339 1272.71 202.264 1271.15 203.443C1270.79 203.718 1270.67 204.223 1270.89 204.628L1272.63 207.859C1272.83 208.22 1272.69 208.68 1272.33 208.875C1271.97 209.069 1271.51 208.931 1271.31 208.57L1269.57 205.339C1269.01 204.278 1269.29 202.981 1270.25 202.258C1271.93 200.99 1273.79 199.989 1275.77 199.285C1276.91 198.879 1278.14 199.36 1278.72 200.412L1281.52 205.607C1282.3 207.051 1281.75 208.852 1280.31 209.63L1276.4 211.735C1275.69 212.119 1275.42 213.013 1275.8 213.727L1278.6 218.912C1278.82 219.317 1279.29 219.495 1279.72 219.339C1281.57 218.688 1283.28 217.763 1284.84 216.584C1285.2 216.309 1285.32 215.804 1285.1 215.399L1283.36 212.168C1283.16 211.807 1283.3 211.347 1283.66 211.152C1284.02 210.958 1284.49 211.096 1284.68 211.457L1286.42 214.688C1286.98 215.749 1286.7 217.046 1285.74 217.769C1284.91 218.398 1284.02 218.967 1283.1 219.465Z" fill="#B5B5B5"/>
<path d="M1280.46 214.569C1280.1 214.764 1279.64 214.626 1279.45 214.265C1279.25 213.904 1279.39 213.443 1279.75 213.249L1286.9 209.399C1287.3 209.18 1287.48 208.71 1287.33 208.271C1286.67 206.43 1285.75 204.713 1284.57 203.156C1284.29 202.784 1283.8 202.674 1283.39 202.892L1280.16 204.632C1279.8 204.827 1279.34 204.689 1279.15 204.328C1278.95 203.967 1279.09 203.506 1279.45 203.312L1282.68 201.571C1283.74 201.011 1285.04 201.29 1285.76 202.252C1287.03 203.931 1288.03 205.789 1288.74 207.772C1289.14 208.905 1288.66 210.141 1287.61 210.719L1280.46 214.569Z" fill="#B5B5B5"/>
<path d="M1276.55 216.675L1273.32 218.415C1272.26 218.975 1270.96 218.697 1270.24 217.735C1268.97 216.055 1267.97 214.197 1267.27 212.214C1266.86 211.081 1267.34 209.845 1268.39 209.267L1275.53 205.422C1275.9 205.227 1276.36 205.365 1276.55 205.726C1276.74 206.087 1276.61 206.548 1276.25 206.742L1269.1 210.593C1268.69 210.811 1268.51 211.281 1268.67 211.72C1269.32 213.561 1270.25 215.278 1271.42 216.835C1271.7 217.207 1272.2 217.317 1272.6 217.099L1275.83 215.359C1276.19 215.164 1276.65 215.303 1276.85 215.664C1277.04 216.025 1276.91 216.48 1276.55 216.675Z" fill="#B5B5B5"/>
<path d="M1273.49 205.139C1273.12 205.334 1272.59 205.18 1272.39 204.81C1272.19 204.441 1272.35 203.921 1272.72 203.722C1272.89 203.632 1273.13 203.602 1273.32 203.65C1273.52 203.702 1273.72 203.866 1273.81 204.042C1274.01 204.412 1273.86 204.94 1273.49 205.139Z" fill="#B5B5B5"/>
<path d="M1283.28 216.278C1282.92 216.472 1282.38 216.319 1282.18 215.949C1281.98 215.579 1282.14 215.051 1282.51 214.852C1282.68 214.762 1282.92 214.732 1283.11 214.78C1283.31 214.832 1283.51 214.996 1283.6 215.172C1283.8 215.555 1283.64 216.084 1283.28 216.278Z" fill="#B5B5B5"/>
<g clip-path="url(#clip2_166_4241)">
<path d="M303.808 415.647C303.851 415.1 303.44 414.623 302.889 414.58C302.338 414.537 301.857 414.946 301.814 415.492L300.63 430.565C300.587 431.111 300.999 431.589 301.55 431.631C302.1 431.674 302.581 431.265 302.624 430.719L303.808 415.647Z" fill="#B5B5B5"/>
<path d="M296.138 421.38C296.594 421.69 296.711 422.307 296.399 422.76L294.328 425.763L297.812 426.895C298.337 427.066 298.623 427.627 298.452 428.148C298.28 428.669 297.715 428.953 297.19 428.782L292.438 427.238C292.139 427.141 291.904 426.909 291.802 426.613C291.701 426.318 291.746 425.992 291.924 425.734L294.748 421.639C295.06 421.186 295.683 421.071 296.138 421.38Z" fill="#B5B5B5"/>
<path d="M305.987 418.064C305.815 418.585 306.101 419.145 306.626 419.316L310.111 420.448L308.04 423.451C307.728 423.904 307.844 424.521 308.3 424.831C308.756 425.141 309.378 425.025 309.69 424.573L312.514 420.477C312.692 420.22 312.737 419.894 312.636 419.598C312.535 419.302 312.299 419.071 312 418.973L307.248 417.429C306.724 417.259 306.159 417.543 305.987 418.064Z" fill="#B5B5B5"/>
</g>
<path d="M195.355 176.256C195.071 176.314 194.773 176.305 194.478 176.214L192.884 175.823C192.485 175.723 192.237 175.318 192.338 174.922C192.439 174.526 192.837 174.282 193.246 174.38L194.873 174.784C194.993 174.82 195.09 174.8 195.151 174.747L202.078 168.814C202.149 168.759 202.179 168.662 202.161 168.574L200.364 160.004C200.346 159.916 200.28 159.849 200.192 159.816L191.455 157.12C191.369 157.097 191.28 157.115 191.22 157.168L184.292 163.1C184.222 163.155 184.192 163.253 184.21 163.34L186.007 171.911C186.025 171.998 186.091 172.066 186.179 172.099L188.92 172.942C189.346 173.077 189.795 172.974 190.13 172.671C190.465 172.369 190.608 171.934 190.517 171.497L188.911 163.789C188.827 163.39 189.091 162.991 189.492 162.908C189.894 162.825 190.296 163.087 190.379 163.485L191.985 171.193C192.185 172.146 191.867 173.113 191.136 173.771C190.406 174.429 189.41 174.645 188.47 174.352L185.729 173.509C185.118 173.321 184.665 172.817 184.536 172.205L182.739 163.634C182.611 163.022 182.824 162.38 183.309 161.965L190.236 156.033C190.694 155.634 191.321 155.505 191.901 155.689L200.638 158.386C201.249 158.574 201.702 159.079 201.83 159.691L203.627 168.261C203.756 168.873 203.543 169.516 203.058 169.93L196.13 175.862C195.906 176.061 195.639 176.197 195.355 176.256Z" fill="#B5B5B5"/>
<path d="M197.343 169.904L195.63 170.258C194.278 170.537 192.954 169.675 192.673 168.334C192.589 167.936 192.853 167.537 193.254 167.454C193.655 167.371 194.058 167.632 194.141 168.031C194.253 168.565 194.785 168.912 195.324 168.8L197.037 168.446C197.576 168.335 197.925 167.807 197.812 167.273C197.7 166.738 197.168 166.392 196.63 166.503L194.916 166.857C193.565 167.136 192.241 166.274 191.959 164.933C191.678 163.592 192.547 162.277 193.898 161.998L195.611 161.644C196.962 161.365 198.287 162.227 198.568 163.568C198.651 163.967 198.388 164.366 197.986 164.449C197.585 164.532 197.183 164.27 197.099 163.872C196.987 163.337 196.455 162.991 195.917 163.102L194.203 163.456C193.665 163.567 193.316 164.095 193.428 164.63C193.54 165.164 194.072 165.511 194.611 165.399L196.324 165.045C197.675 164.766 199 165.628 199.281 166.969C199.562 168.31 198.694 169.625 197.343 169.904Z" fill="#B5B5B5"/>
<g filter="url(#filter0_f_166_4241)">
<ellipse cx="731.5" cy="308" rx="260.5" ry="130" fill="url(#paint0_linear_166_4241)"/>
</g>
</g>
<defs>
<filter id="filter0_f_166_4241" x="171" y="-122" width="1121" height="860" filterUnits="userSpaceOnUse" color-interpolation-filters="sRGB">
<feFlood flood-opacity="0" result="BackgroundImageFix"/>
<feBlend mode="normal" in="SourceGraphic" in2="BackgroundImageFix" result="shape"/>
<feGaussianBlur stdDeviation="150" result="effect1_foregroundBlur_166_4241"/>
</filter>
<linearGradient id="paint0_linear_166_4241" x1="731.5" y1="178" x2="731.5" y2="438" gradientUnits="userSpaceOnUse">
<stop stop-color="#D43D3D" stop-opacity="1"/>
<stop offset="1" stop-color="#DF4444" stop-opacity="0"/>
</linearGradient>
<clipPath id="clip0_166_4241">
<rect width="1440" height="800" fill="white"/>
</clipPath>
<clipPath id="clip1_166_4241">
<rect width="24" height="24" fill="white" transform="translate(1123.56 357) rotate(34.4034)"/>
</clipPath>
<clipPath id="clip2_166_4241">
<rect width="23.9816" height="23.8395" fill="white" transform="matrix(0.947709 -0.319136 0.323452 0.946245 287 415.653)"/>
</clipPath>
</defs>
</svg>
