<svg width="1440" height="800" viewBox="0 0 1440 800" fill="none" xmlns="http://www.w3.org/2000/svg">
<g clip-path="url(#clip0_322_3592)">
<g clip-path="url(#clip1_322_3592)">
<path d="M1208.42 516.099C1211.39 511.761 1210.88 504.963 1206.55 501.992C1202.21 499.022 1195.68 501.003 1192.71 505.341" stroke="#A7A7A7" stroke-width="2.11564" stroke-linecap="round" stroke-linejoin="round"/>
<path d="M1206 499.052L1201.63 496.063" stroke="#A7A7A7" stroke-width="2.11564" stroke-linecap="round" stroke-linejoin="round"/>
<path d="M1213.85 504.431L1209.49 501.442" stroke="#A7A7A7" stroke-width="2.11564" stroke-linecap="round" stroke-linejoin="round"/>
<path d="M1206.55 501.992C1207.51 502.653 1208.83 502.406 1209.49 501.442C1210.15 500.478 1209.9 499.161 1208.94 498.501C1207.97 497.841 1206.66 498.087 1206 499.051C1205.34 500.016 1205.58 501.332 1206.55 501.992Z" stroke="#A7A7A7" stroke-width="2.11564" stroke-linecap="round" stroke-linejoin="round"/>
<path d="M1210.68 499.697L1207.19 497.306L1204.8 500.797L1208.29 503.188L1210.68 499.697Z" stroke="#A7A7A7" stroke-width="2.11564" stroke-linecap="round" stroke-linejoin="round"/>
<path d="M1217.37 504.915L1214.75 503.121L1212.95 505.74L1215.57 507.533L1217.37 504.915Z" stroke="#A7A7A7" stroke-width="2.11564" stroke-linecap="round" stroke-linejoin="round"/>
<path d="M1202.53 494.754L1199.91 492.961L1198.12 495.579L1200.74 497.372L1202.53 494.754Z" stroke="#A7A7A7" stroke-width="2.11564" stroke-linecap="round" stroke-linejoin="round"/>
</g>
<path d="M1350.33 330.887C1349.05 331.574 1347.72 332.164 1346.36 332.65C1344.79 333.211 1343.09 332.546 1342.29 331.094L1338.43 323.923C1337.35 321.929 1338.1 319.442 1340.09 318.368L1345.49 315.462C1346.47 314.932 1346.84 313.698 1346.31 312.713L1342.46 305.554C1342.16 304.995 1341.51 304.749 1340.9 304.965C1338.36 305.864 1335.99 307.14 1333.84 308.768C1333.34 309.148 1333.18 309.844 1333.48 310.404L1335.88 314.864C1336.15 315.363 1335.96 315.999 1335.46 316.267C1334.96 316.535 1334.33 316.345 1334.06 315.846L1331.66 311.385C1330.88 309.92 1331.27 308.13 1332.6 307.132C1334.92 305.382 1337.48 304 1340.22 303.028C1341.78 302.468 1343.49 303.132 1344.29 304.584L1348.15 311.755C1349.22 313.749 1348.48 316.236 1346.48 317.31L1341.09 320.216C1340.1 320.746 1339.73 321.98 1340.26 322.965L1344.12 330.124C1344.42 330.683 1345.07 330.929 1345.67 330.713C1348.22 329.814 1350.59 328.538 1352.74 326.91C1353.24 326.53 1353.39 325.833 1353.09 325.274L1350.69 320.814C1350.42 320.315 1350.61 319.679 1351.11 319.411C1351.61 319.143 1352.25 319.333 1352.51 319.832L1354.92 324.292C1355.69 325.758 1355.31 327.548 1353.98 328.546C1352.83 329.415 1351.61 330.199 1350.33 330.887Z" fill="#FFFEFE" fill-opacity="0.43"/>
<path d="M1346.69 324.129C1346.19 324.397 1345.56 324.206 1345.29 323.708C1345.02 323.21 1345.21 322.574 1345.71 322.305L1355.58 316.99C1356.14 316.689 1356.38 316.039 1356.17 315.434C1355.27 312.892 1353.99 310.522 1352.36 308.372C1351.98 307.859 1351.3 307.707 1350.74 308.008L1346.28 310.41C1345.78 310.678 1345.15 310.488 1344.88 309.989C1344.61 309.491 1344.8 308.855 1345.3 308.587L1349.76 306.185C1351.22 305.411 1353.01 305.795 1354.01 307.124C1355.76 309.443 1357.14 312.007 1358.12 314.745C1358.68 316.309 1358.01 318.016 1356.56 318.813L1346.69 324.129Z" fill="#FFFEFE" fill-opacity="0.43"/>
<path d="M1341.29 327.035L1336.83 329.437C1335.37 330.211 1333.58 329.827 1332.58 328.498C1330.83 326.179 1329.45 323.615 1328.48 320.877C1327.91 319.313 1328.58 317.606 1330.03 316.809L1339.89 311.5C1340.39 311.232 1341.02 311.422 1341.29 311.921C1341.56 312.419 1341.37 313.055 1340.87 313.323L1331 318.639C1330.44 318.94 1330.2 319.59 1330.41 320.194C1331.31 322.737 1332.59 325.107 1334.22 327.256C1334.6 327.77 1335.28 327.922 1335.84 327.621L1340.3 325.218C1340.8 324.95 1341.43 325.141 1341.7 325.639C1341.97 326.137 1341.79 326.767 1341.29 327.035Z" fill="#FFFEFE" fill-opacity="0.43"/>
<path d="M1337.06 311.11C1336.56 311.379 1335.82 311.166 1335.55 310.656C1335.27 310.145 1335.5 309.428 1336.01 309.153C1336.24 309.029 1336.58 308.988 1336.83 309.054C1337.11 309.126 1337.38 309.352 1337.51 309.595C1337.79 310.106 1337.57 310.835 1337.06 311.11Z" fill="#FFFEFE" fill-opacity="0.43"/>
<path d="M1350.58 326.487C1350.08 326.756 1349.34 326.543 1349.06 326.033C1348.79 325.522 1349.01 324.793 1349.52 324.518C1349.75 324.394 1350.09 324.353 1350.34 324.419C1350.62 324.491 1350.9 324.717 1351.03 324.96C1351.3 325.49 1351.08 326.219 1350.58 326.487Z" fill="#FFFEFE" fill-opacity="0.43"/>
<g clip-path="url(#clip2_322_3592)">
<path d="M307.32 466.6C307.362 466.028 306.96 465.528 306.424 465.484C305.887 465.439 305.418 465.866 305.376 466.438L304.223 482.213C304.181 482.785 304.582 483.284 305.119 483.329C305.655 483.374 306.124 482.946 306.166 482.374L307.32 466.6Z" fill="#B5B5B5"/>
<path d="M299.844 472.6C300.289 472.924 300.402 473.571 300.098 474.044L298.08 477.188L301.476 478.373C301.988 478.551 302.267 479.138 302.099 479.683C301.932 480.228 301.381 480.526 300.87 480.347L296.238 478.731C295.947 478.629 295.717 478.387 295.619 478.077C295.52 477.768 295.564 477.427 295.737 477.157L298.49 472.871C298.794 472.398 299.4 472.276 299.844 472.6Z" fill="#B5B5B5"/>
<path d="M309.443 469.129C309.276 469.675 309.555 470.261 310.066 470.44L313.463 471.625L311.444 474.768C311.14 475.242 311.254 475.888 311.698 476.212C312.142 476.536 312.749 476.415 313.053 475.942L315.805 471.656C315.978 471.386 316.022 471.045 315.924 470.735C315.825 470.425 315.596 470.183 315.304 470.082L310.673 468.466C310.161 468.287 309.611 468.584 309.443 469.129Z" fill="#B5B5B5"/>
</g>
<path d="M217.556 272.628C217.224 272.701 216.875 272.69 216.531 272.575L214.667 272.085C214.201 271.959 213.911 271.451 214.029 270.954C214.147 270.457 214.612 270.15 215.09 270.273L216.992 270.78C217.132 270.825 217.247 270.8 217.317 270.733L225.416 263.286C225.498 263.217 225.534 263.095 225.513 262.985L223.412 252.226C223.39 252.116 223.314 252.031 223.211 251.99L212.996 248.605C212.895 248.576 212.792 248.599 212.722 248.666L204.623 256.113C204.541 256.182 204.505 256.305 204.527 256.414L206.627 267.174C206.649 267.284 206.725 267.368 206.829 267.409L210.033 268.468C210.531 268.637 211.055 268.508 211.447 268.128C211.839 267.749 212.007 267.202 211.899 266.653L210.022 256.977C209.924 256.477 210.232 255.976 210.702 255.872C211.171 255.768 211.641 256.096 211.739 256.596L213.616 266.273C213.85 267.468 213.478 268.683 212.624 269.509C211.77 270.335 210.605 270.606 209.507 270.239L206.303 269.18C205.588 268.944 205.058 268.311 204.908 267.542L202.807 256.783C202.657 256.014 202.906 255.208 203.473 254.688L211.572 247.241C212.107 246.74 212.84 246.578 213.518 246.809L223.732 250.195C224.446 250.431 224.976 251.064 225.126 251.833L227.227 262.592C227.377 263.36 227.129 264.166 226.561 264.687L218.463 272.134C218.201 272.383 217.888 272.554 217.556 272.628Z" fill="white" fill-opacity="0.64"/>
<path d="M219.88 264.654L217.877 265.099C216.297 265.449 214.749 264.367 214.42 262.684C214.322 262.183 214.63 261.682 215.1 261.578C215.569 261.474 216.039 261.803 216.137 262.303C216.268 262.974 216.89 263.408 217.52 263.269L219.523 262.824C220.152 262.685 220.56 262.022 220.429 261.351C220.298 260.68 219.676 260.245 219.046 260.385L217.043 260.829C215.464 261.179 213.915 260.097 213.586 258.414C213.258 256.731 214.273 255.08 215.852 254.73L217.855 254.285C219.435 253.935 220.983 255.017 221.312 256.7C221.41 257.201 221.102 257.702 220.632 257.806C220.163 257.91 219.693 257.581 219.595 257.081C219.464 256.41 218.842 255.976 218.212 256.115L216.21 256.559C215.58 256.699 215.172 257.362 215.303 258.033C215.434 258.704 216.056 259.139 216.686 258.999L218.689 258.555C220.268 258.205 221.817 259.286 222.146 260.97C222.474 262.653 221.459 264.304 219.88 264.654Z" fill="white" fill-opacity="0.64"/>
<g filter="url(#filter0_f_322_3592)">
<ellipse cx="658.607" cy="418.965" rx="176.5" ry="103" fill="url(#paint0_linear_322_3592)"/>
</g>
</g>
<defs>
<filter id="filter0_f_322_3592" x="182.107" y="15.9652" width="953" height="806" filterUnits="userSpaceOnUse" color-interpolation-filters="sRGB">
<feFlood flood-opacity="0" result="BackgroundImageFix"/>
<feBlend mode="normal" in="SourceGraphic" in2="BackgroundImageFix" result="shape"/>
<feGaussianBlur stdDeviation="150" result="effect1_foregroundBlur_322_3592"/>
</filter>
<linearGradient id="paint0_linear_322_3592" x1="658.607" y1="315.965" x2="658.607" y2="521.965" gradientUnits="userSpaceOnUse">
<stop stop-color="#D43D3D" stop-opacity="1"/>
<stop offset="1" stop-color="#DF4444" stop-opacity="0"/>
</linearGradient>
<clipPath id="clip0_322_3592">
<rect width="1440" height="800" fill="white"/>
</clipPath>
<clipPath id="clip1_322_3592">
<rect width="25.3876" height="25.3876" fill="white" transform="translate(1201.45 486.965) rotate(34.4034)"/>
</clipPath>
<clipPath id="clip2_322_3592">
<rect width="23.5548" height="24.7761" fill="white" transform="matrix(0.940406 -0.340054 0.30333 0.952886 290.938 466.607)"/>
</clipPath>
</defs>
</svg>
